<?xml version="1.0" encoding="utf-8"?>
<!-- Generator: Adobe Illustrator 16.0.0, SVG Export Plug-In . SVG Version: 6.00 Build 0)  -->
<!DOCTYPE svg PUBLIC "-//W3C//DTD SVG 1.1//EN" "http://www.w3.org/Graphics/SVG/1.1/DTD/svg11.dtd">
<svg version="1.1" id="Ebene_1" xmlns="http://www.w3.org/2000/svg" xmlns:xlink="http://www.w3.org/1999/xlink" x="0px" y="0px"
	 width="1080px" height="1080px">"
<g>
	<path fill="#FF8800" d="M201.723,584.177c-2.905,0-5.438-0.305-7.596-0.913v-10.708c2.214,0.554,4.233,0.83,6.06,0.83
		c2.822,0,4.842-0.879,6.06-2.636c1.218-1.758,1.826-4.503,1.826-8.238v-65.734h12.866v65.651c0,7.083-1.618,12.479-4.855,16.187
		C212.846,582.322,208.059,584.177,201.723,584.177z"/>
	<path fill="#FF8800" d="M313.368,527.034c0,10.043-2.49,17.764-7.471,23.158c-4.98,5.396-12.119,8.094-21.416,8.094
		s-16.436-2.697-21.416-8.094c-4.98-5.395-7.471-13.143-7.471-23.241c0-10.1,2.496-17.812,7.491-23.139
		c4.994-5.326,12.153-7.989,21.479-7.989c9.324,0,16.456,2.684,21.395,8.052C310.898,509.243,313.368,516.963,313.368,527.034z
		 M269.083,527.034c0,6.779,1.287,11.884,3.86,15.314c2.573,3.432,6.419,5.146,11.538,5.146c10.265,0,15.397-6.82,15.397-20.461
		c0-13.669-5.104-20.503-15.314-20.503c-5.119,0-8.979,1.722-11.58,5.167C270.384,515.143,269.083,520.255,269.083,527.034z"/>
	<path fill="#FF8800" d="M401.854,557.456h-16.353l-26.396-45.903h-0.374c0.525,8.107,0.789,13.891,0.789,17.349v28.555h-11.497
		v-60.679h16.229l26.354,45.446h0.291c-0.415-7.885-0.623-13.46-0.623-16.726v-28.721h11.58V557.456z"/>
	<path fill="#FF8800" d="M439.208,557.456v-60.679h12.866v60.679H439.208z"/>
	<path fill="#FF8800" d="M512.463,523.382h24.072v31.459c-3.902,1.273-7.575,2.166-11.02,2.678
		c-3.445,0.512-6.967,0.768-10.563,0.768c-9.159,0-16.152-2.69-20.98-8.072c-4.829-5.381-7.242-13.108-7.242-23.18
		c0-9.795,2.801-17.432,8.404-22.91c5.603-5.479,13.37-8.218,23.305-8.218c6.225,0,12.229,1.245,18.012,3.735l-4.274,10.293
		c-4.428-2.214-9.034-3.32-13.821-3.32c-5.561,0-10.017,1.867-13.363,5.603c-3.349,3.735-5.022,8.758-5.022,15.066
		c0,6.585,1.349,11.614,4.047,15.086c2.697,3.474,6.62,5.209,11.767,5.209c2.683,0,5.408-0.276,8.176-0.83v-12.659h-11.496V523.382z
		"/>
	<path fill="#FF8800" d="M585.924,534.173v23.283h-12.866v-60.679h17.681c8.245,0,14.346,1.502,18.304,4.503
		c3.956,3.003,5.935,7.562,5.935,13.676c0,3.569-0.982,6.744-2.946,9.525c-1.966,2.78-4.746,4.959-8.343,6.537
		c9.131,13.641,15.079,22.453,17.847,26.438h-14.277l-14.484-23.283H585.924z M585.924,523.714h4.15
		c4.067,0,7.069-0.678,9.007-2.034c1.936-1.355,2.904-3.486,2.904-6.392c0-2.877-0.989-4.925-2.967-6.143
		c-1.979-1.217-5.043-1.826-9.193-1.826h-3.901V523.714z"/>
	<path fill="#FF8800" d="M688.397,557.456l-4.4-14.443h-22.121l-4.399,14.443h-13.862l21.416-60.928h15.73l21.498,60.928H688.397z
		 M680.927,532.222c-4.068-13.087-6.357-20.488-6.869-22.204c-0.513-1.716-0.879-3.071-1.1-4.067
		c-0.914,3.542-3.528,12.299-7.845,26.271H680.927z"/>
	<path fill="#FF8800" d="M744.635,557.456h-12.658v-60.679h34.78v10.542h-22.122v15.647h20.586v10.5h-20.586V557.456z"/>
	<path fill="#FF8800" d="M800.707,557.456v-60.679h12.866v60.679H800.707z"/>
	<path fill="#FF8800" d="M885.873,582.928h-34.946v-85.15h34.946v10.542h-22.08v26.449h20.544v10.543h-20.544v26.991h22.08V582.928z
		"/>
</g>
</svg>
